# xmcd
#
# Track frame offsets:
#	150
#	3810
#	23208
#	41504
#	58963
#	79513
#	97732
#	115492
#	135076
#	154489
#	172945
#	191048
#	207707
#	228102
#	251502
#
# Disc length: 3636 seconds
#
# Revision: 2
# Processed by: cddbd v1.5.1PL0 Copyright (c) Steve Scherf et al.
# Submitted via: EasyCDDAExtractor 8.0.2.1
#
DISCID=b90e320f
DTITLE=Devante - Ready Or Not
DYEAR=2003
DGENRE=R&B
TTITLE0=Enter-Lude
TTITLE1=Beautiful
TTITLE2=Can't Afford
TTITLE3=Things You Like
TTITLE4=Like I Do
TTITLE5=Still
TTITLE6=7 Days
TTITLE7=Soul Sista
TTITLE8=Summer Love
TTITLE9=Assumptions (Remix)
TTITLE10=Unconditional (Thankful Part II)
TTITLE11=Gonna Be Alright
TTITLE12=After Tonight
TTITLE13=Get Over You
TTITLE14=Whenever You Call
EXTD=
EXTT0=
EXTT1=
EXTT2=
EXTT3=
EXTT4=
EXTT5=
EXTT6=
EXTT7=
EXTT8=
EXTT9=
EXTT10=
EXTT11=
EXTT12=
EXTT13=
EXTT14=
PLAYORDER=
